# xmcd CD database file
#
# Track frame offsets:
#	150
#	10548
#	21705
#	30667
#	39083
#	47472
#	59942
#	71934
#	84177
#	95930
#	108348
#	119286
#	127980
#	140054
#	152434
#	164952
#	177351
#	190444
#	201698
#	211382
#	227147
#	237586
#	248254
#	254736
#	267595
#	278631
#	288570
#	299705
#	312030
#	327150
#	337085
#	349677
#
# Disc length: 4794 seconds
#
# Revision: 2
# Processed by: cddbd v1.5.2PL0 Copyright (c) Steve Scherf et al.
# Submitted via: CDex 2.16
#
DISCID=fe12b820
DTITLE=Various Artist - How Britain Got The Blues 4_ Rockhouse_  CD 2
DYEAR=1962
DGENRE=Blues
TTITLE0=Johnny Burnette - The Train Kept A Rollin'
TTITLE1=Lazy Lester - I'm A Lover Not A Fighter
TTITLE2=The Coasters - I'm A Hog For You
TTITLE3=Chuck Berry - Jaguar And The Thunderbird
TTITLE4=Larry Williams - She Said Yeah
TTITLE5=Muddy Waters - You Need Love
TTITLE6=Ray Charles - Mess Around
TTITLE7=Otis Blackwell - Daddy Rollin' Stone
TTITLE8=Don and Bob - Good Morning Schoolgirl
TTITLE9=Ernie K - Doe - A Certain Girl
TTITLE10=Wilbert Harrison - Kansas City
TTITLE11=Johnny Guitar Watson - Looking Back
TTITLE12=Little Walter - My Babe
TTITLE13=The Coasters - Poison Ivy
TTITLE14=Bo Diddley - Road Runner
TTITLE15=Arthur Alexander - You Better Move On
TTITLE16=The Contours - Do You Love Me
TTITLE17=Bo Diddley - Bring It to Jerome
TTITLE18=Chuck Berry - Don't You Lie To Me
TTITLE19=Ray Charles - (Night Time Is) The Right Time
TTITLE20=Fats Domino - Blue Monday
TTITLE21=Huey 'Piano' Smith - Rockin Pneumonia
TTITLE22=Mose Allison - A Young Man
TTITLE23=The Coasters - Little Egypt
TTITLE24=Chuck Willis - C.C. Rider
TTITLE25=Johnny Otis - Casting My Spell
TTITLE26=Screamin' Jay Hawkins - I Put A Spell On You
TTITLE27=Louis Jordan - Let The Good Times Roll
TTITLE28=Chuck Jackson - Any Day Now
TTITLE29=Ray and Bob - Air Travel
TTITLE30=Slim Harpo - I've Got Love If You Want It
TTITLE31=Doctor Feelgood - Dr Feelgood and The Interns
EXTD=YEAR: 1962
EXTT0=
EXTT1=
EXTT2=
EXTT3=
EXTT4=
EXTT5=
EXTT6=
EXTT7=
EXTT8=
EXTT9=
EXTT10=
EXTT11=
EXTT12=
EXTT13=
EXTT14=
EXTT15=
EXTT16=
EXTT17=
EXTT18=
EXTT19=
EXTT20=
EXTT21=
EXTT22=
EXTT23=
EXTT24=
EXTT25=
EXTT26=
EXTT27=
EXTT28=
EXTT29=
EXTT30=
EXTT31=
PLAYORDER=
